<svg width="21" height="21" viewBox="0 0 21 21" fill="none" xmlns="http://www.w3.org/2000/svg">
<path d="M13.5 12.3906C14.8261 12.3906 16.0979 12.9174 17.0355 13.8551C17.9732 14.7928 18.5 16.0645 18.5 17.3906V18.3906C18.5 18.9211 18.2893 19.4298 17.9142 19.8048C17.5391 20.1799 17.0304 20.3906 16.5 20.3906H2.5C1.96957 20.3906 1.46086 20.1799 1.08579 19.8048C0.710714 19.4298 0.5 18.9211 0.5 18.3906V17.3906C0.5 16.0645 1.02678 14.7928 1.96447 13.8551C2.90215 12.9174 4.17392 12.3906 5.5 12.3906H13.5ZM17.5 6.39062C17.7652 6.39062 18.0196 6.49598 18.2071 6.68352C18.3946 6.87105 18.5 7.12541 18.5 7.39062V8.39062H19.5C19.7652 8.39062 20.0196 8.49598 20.2071 8.68352C20.3946 8.87105 20.5 9.12541 20.5 9.39062C20.5 9.65584 20.3946 9.9102 20.2071 10.0977C20.0196 10.2853 19.7652 10.3906 19.5 10.3906H18.5V11.3906C18.5 11.6558 18.3946 11.9102 18.2071 12.0977C18.0196 12.2853 17.7652 12.3906 17.5 12.3906C17.2348 12.3906 16.9804 12.2853 16.7929 12.0977C16.6054 11.9102 16.5 11.6558 16.5 11.3906V10.3906H15.5C15.2348 10.3906 14.9804 10.2853 14.7929 10.0977C14.6054 9.9102 14.5 9.65584 14.5 9.39062C14.5 9.12541 14.6054 8.87105 14.7929 8.68352C14.9804 8.49598 15.2348 8.39062 15.5 8.39062H16.5V7.39062C16.5 7.12541 16.6054 6.87105 16.7929 6.68352C16.9804 6.49598 17.2348 6.39062 17.5 6.39062ZM9.5 0.390625C10.8261 0.390625 12.0979 0.917409 13.0355 1.85509C13.9732 2.79277 14.5 4.06454 14.5 5.39062C14.5 6.71671 13.9732 7.98848 13.0355 8.92616C12.0979 9.86384 10.8261 10.3906 9.5 10.3906C8.17392 10.3906 6.90215 9.86384 5.96447 8.92616C5.02678 7.98848 4.5 6.71671 4.5 5.39062C4.5 4.06454 5.02678 2.79277 5.96447 1.85509C6.90215 0.917409 8.17392 0.390625 9.5 0.390625Z" fill="white"/>
</svg>
