<svg width="19" height="11" viewBox="0 0 19 11" fill="none" xmlns="http://www.w3.org/2000/svg">
<path fill-rule="evenodd" clip-rule="evenodd" d="M0.292786 0.305288C0.480314 0.117817 0.734622 0.0125018 0.999786 0.0125018C1.26495 0.0125018 1.51926 0.117817 1.70679 0.305288L8.99979 7.59829L16.2928 0.305288C16.385 0.209778 16.4954 0.133596 16.6174 0.0811869C16.7394 0.0287779 16.8706 0.00119157 17.0034 3.77571e-05C17.1362 -0.00111606 17.2678 0.0241854 17.3907 0.0744663C17.5136 0.124747 17.6253 0.199 17.7192 0.292893C17.8131 0.386786 17.8873 0.498438 17.9376 0.621334C17.9879 0.744231 18.0132 0.87591 18.012 1.00869C18.0109 1.14147 17.9833 1.27269 17.9309 1.39469C17.8785 1.5167 17.8023 1.62704 17.7068 1.71929L9.70679 9.71929C9.51926 9.90676 9.26495 10.0121 8.99979 10.0121C8.73462 10.0121 8.48031 9.90676 8.29279 9.71929L0.292786 1.71929C0.105315 1.53176 0 1.27745 0 1.01229C0 0.747124 0.105315 0.492816 0.292786 0.305288Z" fill="#00BCD4"/>
</svg>
