<svg width="20" height="20" viewBox="0 0 20 20" fill="none" xmlns="http://www.w3.org/2000/svg">
<path fill-rule="evenodd" clip-rule="evenodd" d="M20 14.443V18.8859C20 19.1805 19.8829 19.463 19.6746 19.6713C19.4662 19.8796 19.1836 19.9967 18.8889 19.9967H14.4444V18.6638H18.6667V14.443H20ZM5.55556 0.00333225V1.33622H1.33333V5.55704H0V1.11407C0 0.819486 0.117063 0.536965 0.325437 0.328661C0.533811 0.120356 0.816426 0.00333225 1.11111 0.00333225H5.55556ZM18.6633 2.27591L12.5833 8.35388L11.64 7.41086L17.72 1.33289H14.4411V0H18.8856C19.1802 0 19.4629 0.117024 19.6712 0.325328C19.8796 0.533633 19.9967 0.816154 19.9967 1.11074V5.5537H18.6633V2.27591ZM1.33667 17.7241L7.41667 11.6461L8.36 12.5891L2.28 18.6671H5.55889V20H1.11444C0.819759 20 0.537144 19.883 0.32877 19.6747C0.120396 19.4664 0.00333336 19.1838 0.00333336 18.8893V14.4463H1.33667V17.7241Z" fill="#00BCD4"/>
</svg>
