<svg width="20" height="22" viewBox="0 0 20 22" fill="none" xmlns="http://www.w3.org/2000/svg">
<path fill-rule="evenodd" clip-rule="evenodd" d="M12.8623 11.5905C12.6969 11.1225 12.3904 10.7174 11.9852 10.4308C11.5799 10.1443 11.0958 9.99045 10.5994 9.99053V9.39062H9.39963V9.99053C8.76321 9.99053 8.15285 10.2433 7.70284 10.6934C7.25282 11.1434 7 11.7537 7 12.3902C7 13.0266 7.25282 13.6369 7.70284 14.087C8.15285 14.537 8.76321 14.7898 9.39963 14.7898V17.1894C8.87771 17.1894 8.43318 16.8565 8.2676 16.3897C8.24304 16.3134 8.20341 16.2427 8.15106 16.1819C8.09871 16.1212 8.0347 16.0715 7.96283 16.0359C7.89095 16.0003 7.81266 15.9795 7.73259 15.9746C7.65253 15.9698 7.5723 15.9811 7.49667 16.0078C7.42104 16.0345 7.35154 16.0762 7.29227 16.1302C7.233 16.1843 7.18518 16.2497 7.15162 16.3225C7.11807 16.3954 7.09947 16.4742 7.09692 16.5544C7.09437 16.6346 7.10792 16.7144 7.13678 16.7893C7.30218 17.2572 7.60862 17.6624 8.01389 17.9489C8.41915 18.2355 8.9033 18.3893 9.39963 18.3892V18.9891H10.5994V18.3892C11.2359 18.3892 11.8462 18.1364 12.2962 17.6864C12.7463 17.2364 12.9991 16.626 12.9991 15.9896C12.9991 15.3532 12.7463 14.7428 12.2962 14.2928C11.8462 13.8428 11.2359 13.59 10.5994 13.59V11.1903C10.8476 11.1903 11.0896 11.2672 11.2922 11.4104C11.4949 11.5536 11.6481 11.7561 11.7309 11.99C11.7838 12.1401 11.8943 12.2629 12.0378 12.3315C12.1089 12.3655 12.186 12.3852 12.2647 12.3893C12.3433 12.3935 12.4221 12.3822 12.4963 12.356C12.5706 12.3297 12.639 12.2891 12.6976 12.2365C12.7562 12.1838 12.8039 12.1201 12.8379 12.049C12.8718 11.9779 12.8915 11.9009 12.8957 11.8222C12.8999 11.7435 12.8885 11.6648 12.8623 11.5905ZM9.39963 11.1903C9.08142 11.1903 8.77624 11.3168 8.55123 11.5418C8.32622 11.7668 8.19981 12.0719 8.19981 12.3902C8.19981 12.7084 8.32622 13.0135 8.55123 13.2386C8.77624 13.4636 9.08142 13.59 9.39963 13.59V11.1903ZM10.5994 17.1894C10.9177 17.1894 11.2228 17.063 11.4478 16.838C11.6728 16.613 11.7993 16.3078 11.7993 15.9896C11.7993 15.6714 11.6728 15.3662 11.4478 15.1412C11.2228 14.9162 10.9177 14.7898 10.5994 14.7898V17.1894Z" fill="white"/>
<path fill-rule="evenodd" clip-rule="evenodd" d="M3.49437 1.96298C4.96654 1.24249 7.38177 0.390625 10.025 0.390625C12.613 0.390625 14.9646 1.2071 16.429 1.91799L16.5117 1.95818C16.9533 2.17655 17.3096 2.38292 17.5604 2.55029L15.3443 5.78979C20.4531 11.0126 24.3993 21.9855 10.025 21.9855C-4.34941 21.9855 -0.509408 11.2117 4.64379 5.78979L2.44213 2.55029C2.61191 2.43931 2.82727 2.31033 3.08403 2.17355C3.21121 2.10516 3.34799 2.03457 3.49437 1.96298ZM13.9202 5.74719L15.6941 3.1538C14.0443 3.27258 12.0814 3.66012 10.1917 4.20723C8.84194 4.59717 7.34217 4.53778 5.95339 4.28162C5.6034 4.21682 5.25584 4.13959 4.91135 4.05006L6.06317 5.74599C8.53179 6.62486 11.4509 6.62486 13.9202 5.74719ZM5.37028 6.76763C8.25883 7.88346 11.7305 7.88346 14.619 6.76643C15.8245 8.03771 16.8331 9.48205 17.6114 11.0516C18.4225 12.7061 18.864 14.3601 18.792 15.7854C18.7224 17.161 18.1813 18.3362 16.9455 19.2097C15.6575 20.1198 13.4912 20.7857 10.0244 20.7857C6.5539 20.7857 4.37743 20.1312 3.07744 19.2313C1.83263 18.3692 1.28611 17.2096 1.20873 15.8526C1.12774 14.4428 1.55967 12.7973 2.36775 11.1314C3.13863 9.5428 4.21426 8.01364 5.37028 6.76763ZM4.68039 2.73986C5.16031 2.88264 5.66183 3.00682 6.17055 3.101C7.46035 3.33857 8.75375 3.37336 9.85758 3.05361C11.1439 2.67873 12.4522 2.38401 13.775 2.17115C12.6711 1.8388 11.3801 1.59044 10.0244 1.59044C7.95768 1.59044 6.03018 2.16695 4.68039 2.73986Z" fill="white"/>
</svg>
