<svg width="22" height="23" viewBox="0 0 22 23" fill="none" xmlns="http://www.w3.org/2000/svg">
<path d="M1 5.83507C1 7.01381 1.46825 8.14427 2.30175 8.97777C3.13524 9.81126 4.2657 10.2795 5.44444 10.2795C6.62318 10.2795 7.75365 9.81126 8.58714 8.97777C9.42064 8.14427 9.88889 7.01381 9.88889 5.83507C9.88889 4.65633 9.42064 3.52587 8.58714 2.69237C7.75365 1.85888 6.62318 1.39063 5.44444 1.39062C4.2657 1.39063 3.13524 1.85888 2.30175 2.69237C1.46825 3.52587 1 4.65633 1 5.83507Z" stroke="white" stroke-width="1.5" stroke-linecap="round" stroke-linejoin="round"/>
<path d="M5.44434 1.39062V5.83507H9.88878M7.66656 16.9462V21.3906M16.5554 13.6128V21.3906M12.111 12.5017V21.3906M20.9999 11.3906V21.3906" stroke="white" stroke-width="1.5" stroke-linecap="round" stroke-linejoin="round"/>
</svg>
