<svg width="20" height="20" viewBox="0 0 20 20" fill="none" xmlns="http://www.w3.org/2000/svg">
<path d="M11.2107 19.7394L18.9458 14.1618C19.603 13.6924 20 12.9331 20 12.1186C20 10.0615 17.7 8.87416 16.0435 10.0615L10.4167 14.1066L4.78988 10.0615C3.13333 8.86036 0.833332 10.0615 0.833332 12.1186C0.833332 12.9331 1.23036 13.7062 1.8875 14.1756L9.62262 19.7533C10.1018 20.0846 10.7315 20.0846 11.2107 19.7394Z" fill="#00BCD4"/>
<path d="M11.2107 10.1561L18.9458 4.59225C19.603 4.10904 20 3.34972 20 2.53516C20 0.478076 17.7 -0.723042 16.0435 0.478077L10.4167 4.52322L4.78988 0.478077C3.13333 -0.723042 0.833332 0.478077 0.833332 2.53516C0.833332 3.34972 1.23036 4.12285 1.8875 4.59225L9.62262 10.1699C10.1018 10.5012 10.7315 10.5012 11.2107 10.1561Z" fill="#00BCD4"/>
</svg>
