<svg width="20" height="20" viewBox="0 0 20 20" fill="none" xmlns="http://www.w3.org/2000/svg">
<path d="M19.7394 8.78929L14.1618 1.05417C13.6924 0.397024 12.9331 0 12.1185 0C10.0615 0 8.87414 2.3 10.0615 3.95655L14.1066 9.58333L10.0615 15.2101C8.86033 16.8667 10.0615 19.1667 12.1185 19.1667C12.9331 19.1667 13.7062 18.7696 14.1756 18.1125L19.7532 10.3774C20.0846 9.89822 20.0846 9.26845 19.7394 8.78929Z" fill="#00BCD4"/>
<path d="M10.1561 8.78929L4.59225 1.05417C4.10904 0.397024 3.34972 0 2.53516 0C0.478076 0 -0.723042 2.3 0.478077 3.95655L4.52322 9.58333L0.478077 15.2101C-0.723042 16.8667 0.478076 19.1667 2.53516 19.1667C3.34972 19.1667 4.12285 18.7696 4.59225 18.1125L10.1699 10.3774C10.5012 9.89822 10.5012 9.26845 10.1561 8.78929Z" fill="#00BCD4"/>
</svg>
