<svg width="21" height="20" viewBox="0 0 21 20" fill="none" xmlns="http://www.w3.org/2000/svg">
<path d="M13.9957 7.56543C14.0827 7.48401 14.1528 7.38619 14.2022 7.27755C14.2515 7.16891 14.279 7.05158 14.2832 6.93225C14.2873 6.81293 14.268 6.69395 14.2264 6.58211C14.1848 6.47027 14.1216 6.36776 14.0405 6.28043C13.9595 6.1931 13.862 6.12267 13.7539 6.07314C13.6457 6.02362 13.5288 5.99598 13.41 5.9918C13.2912 5.98762 13.1727 6.00699 13.0613 6.04879C12.9499 6.09059 12.8479 6.15401 12.7609 6.23543L10.112 8.71543L7.64231 6.05452C7.47706 5.88456 7.25213 5.7863 7.01566 5.78076C6.77918 5.77523 6.54993 5.86285 6.37697 6.02489C6.20402 6.18693 6.10108 6.41051 6.0902 6.64779C6.07932 6.88508 6.16136 7.11721 6.31876 7.29452L8.78842 9.95452L6.1386 12.4345C6.04856 12.5151 5.97547 12.613 5.92362 12.7223C5.87177 12.8317 5.8422 12.9503 5.83665 13.0713C5.8311 13.1923 5.84969 13.3132 5.89131 13.4269C5.93294 13.5406 5.99677 13.6447 6.07905 13.7333C6.16133 13.8219 6.2604 13.893 6.37045 13.9426C6.4805 13.9922 6.59931 14.0192 6.71989 14.022C6.84047 14.0248 6.9604 14.0034 7.07263 13.959C7.18486 13.9147 7.28713 13.8482 7.37343 13.7636L10.0224 11.2845L12.492 13.9445C12.5718 14.0366 12.6691 14.1116 12.7784 14.1651C12.8876 14.2186 13.0064 14.2494 13.1278 14.2558C13.2492 14.2622 13.3705 14.244 13.4847 14.2023C13.5989 14.1605 13.7036 14.0961 13.7925 14.0129C13.8814 13.9297 13.9527 13.8294 14.0021 13.7179C14.0516 13.6064 14.0782 13.4861 14.0803 13.3641C14.0825 13.2421 14.0601 13.1209 14.0147 13.0077C13.9692 12.8946 13.9015 12.7918 13.8156 12.7054L11.3468 10.0454L13.9957 7.56543Z" fill="#00BCD4"/>
<path fill-rule="evenodd" clip-rule="evenodd" d="M0.108398 10C0.108398 4.47727 4.56702 0 10.0667 0C15.5664 0 20.0251 4.47727 20.0251 10C20.0251 15.5227 15.5664 20 10.0667 20C4.56702 20 0.108398 15.5227 0.108398 10ZM10.0667 18.1818C8.99676 18.1818 7.93726 17.9702 6.94873 17.559C5.9602 17.1478 5.06201 16.5452 4.30542 15.7854C3.54883 15.0257 2.94867 14.1237 2.53921 13.131C2.12975 12.1384 1.919 11.0745 1.919 10C1.919 8.92555 2.12975 7.86162 2.53921 6.86895C2.94867 5.87629 3.54883 4.97433 4.30542 4.21458C5.06201 3.45483 5.9602 2.85216 6.94873 2.44099C7.93726 2.02981 8.99676 1.81818 10.0667 1.81818C12.2276 1.81818 14.3 2.68019 15.828 4.21458C17.356 5.74897 18.2145 7.83005 18.2145 10C18.2145 12.17 17.356 14.251 15.828 15.7854C14.3 17.3198 12.2276 18.1818 10.0667 18.1818Z" fill="#00BCD4"/>
</svg>
