<svg width="25" height="28" viewBox="0 0 25 28" fill="none" xmlns="http://www.w3.org/2000/svg">
<path d="M0 2.33333C0 1.04533 1.05948 0 2.3649 0H9.79745C10.0663 0 10.324 0.105357 10.5141 0.292893C10.7042 0.48043 10.811 0.734784 10.811 1C10.811 1.26522 10.7042 1.51957 10.5141 1.70711C10.324 1.89464 10.0663 2 9.79745 2H2.3649C2.2753 2 2.18937 2.03512 2.12601 2.09763C2.06265 2.16014 2.02706 2.24493 2.02706 2.33333V25.6667C2.02706 25.8507 2.17841 26 2.3649 26H9.79745C10.0663 26 10.324 26.1054 10.5141 26.2929C10.7042 26.4804 10.811 26.7348 10.811 27C10.811 27.2652 10.7042 27.5196 10.5141 27.7071C10.324 27.8946 10.0663 28 9.79745 28H2.3649C1.73769 28 1.13617 27.7542 0.692664 27.3166C0.249159 26.879 0 26.2855 0 25.6667V2.33333ZM21.6301 15H10.4731C10.2043 15 9.94653 14.8946 9.75646 14.7071C9.56639 14.5196 9.4596 14.2652 9.4596 14C9.4596 13.7348 9.56639 13.4804 9.75646 13.2929C9.94653 13.1054 10.2043 13 10.4731 13H21.6301L17.1705 8.35467C16.9929 8.16103 16.8991 7.90652 16.9092 7.64554C16.9193 7.38457 17.0325 7.13784 17.2245 6.95811C17.4165 6.77838 17.6722 6.67991 17.9369 6.68375C18.2016 6.68759 18.4542 6.79344 18.6408 6.97867L24.722 13.312C24.9005 13.4978 25 13.744 25 14C25 14.256 24.9005 14.5022 24.722 14.688L18.6408 21.0213C18.4542 21.2066 18.2016 21.3124 17.9369 21.3162C17.6722 21.3201 17.4165 21.2216 17.2245 21.0419C17.0325 20.8622 16.9193 20.6154 16.9092 20.3545C16.8991 20.0935 16.9929 19.839 17.1705 19.6453L21.6301 15Z" fill="white"/>
</svg>
